<svg xmlns="http://www.w3.org/2000/svg" version="1.1" xmlns:xlink="http://www.w3.org/1999/xlink" viewBox="0 0 18.32568754278297 12.510085639599456"><g transform="matrix(1,0,0,1,1.257165272582891,8.070227867016566)"><rect width="18.32568754278297" height="18.32568754278297" x="-1.257165272582891" y="-10.978028818608323" fill="#ffffff"></rect><g clip-path="url(#SvgjsClipPath1002)"><g clip-path="url(#SvgjsClipPath100059f7caa6-b7e9-4f35-9378-5eaa9e8e27fa)"><path d=" M 8.075359265981115 -0.9279158644940599 C 9.655134601617366 -0.9279158644940599 10.935784313497837 -2.2175283833807953 10.935784313497837 -3.808749030122165 C 10.935784313497837 -5.399969676863535 9.655134601617366 -6.689614436063242 8.075359265981115 -6.689614436063242 C 6.495583930344865 -6.689614436063242 5.214934218464393 -5.399808475298674 5.214934218464393 -3.808749030122165 C 5.214934218464393 -2.2176895849456555 6.495616170657837 -0.9279158644940599 8.075359265981115 -0.9279158644940599 Z M 8.075359265981115 -0.8302599565013615 C 9.708685761464137 -0.8302599565013615 11.03273093460515 -2.1637837816561905 11.03273093460515 -3.808749030122165 C 11.03273093460515 -5.45371427858814 9.708685761464137 -6.7872703440559405 8.075359265981115 -6.7872703440559405 C 6.442032770498094 -6.7872703440559405 5.117987597357082 -5.453746518901112 5.117987597357082 -3.808749030122165 C 5.117987597357082 -2.1637515413432182 6.4419682898721495 -0.8302599565013615 8.075359265981115 -0.8302599565013615 Z" fill="#1c3423" transform="matrix(1,0,0,1,0,0)" fill-rule="evenodd"></path></g><g clip-path="url(#SvgjsClipPath100059f7caa6-b7e9-4f35-9378-5eaa9e8e27fa)"><path d=" M 7.639018870215788 -0.8302599565013615 C 9.218794205852038 -0.8302599565013615 10.499443917732512 -2.1198724753880973 10.499443917732512 -3.7110931221294674 C 10.499443917732512 -5.302313768870837 9.21879420585204 -6.591958528070544 7.639018870215788 -6.591958528070544 C 6.059243534579538 -6.591958528070544 4.778626063012038 -5.302152567305976 4.778626063012038 -3.7110931221294674 C 4.778626063012038 -2.120033676952958 6.059275774892511 -0.8302599565013615 7.639018870215788 -0.8302599565013615 Z M 7.639018870215788 -0.7326040485086649 C 9.27234536569881 -0.7326040485086649 10.596422779152793 -2.0661278736634925 10.596422779152793 -3.7110931221294674 C 10.596422779152793 -5.356058370595441 9.27234536569881 -6.689614436063242 7.639018870215788 -6.689614436063242 C 6.005692374732767 -6.689614436063242 4.6816472015917565 -5.356090610908414 4.6816472015917565 -3.7110931221294674 C 4.6816472015917565 -2.06609563335052 6.005724615045739 -0.7325395678827196 7.639018870215788 -0.7325395678827196 Z" fill="#1c3423" transform="matrix(1,0,0,1,0,0)" fill-rule="evenodd"></path></g><g clip-path="url(#SvgjsClipPath100059f7caa6-b7e9-4f35-9378-5eaa9e8e27fa)"><path d=" M 8.172338127401398 -0.4884481583704332 C 9.752113463037649 -0.4884481583704332 11.03273093460515 -1.778254119135001 11.03273093460515 -3.3693135643115095 C 11.03273093460515 -4.960373009488019 9.752081222724676 -6.250146729939615 8.172338127401398 -6.250146729939615 C 6.592595032078119 -6.250146729939615 5.311913079884675 -4.960340769175048 5.311913079884675 -3.3693135643115104 C 5.311913079884675 -1.7782863594479736 6.592562791765148 -0.4884481583704332 8.172338127401398 -0.4884481583704332 Z M 8.172338127401398 -0.3907922503777348 C 9.805632382571448 -0.3907922503777348 11.12970979602543 -1.7243160755325633 11.12970979602543 -3.3693135643115104 C 11.12970979602543 -5.0143110530904575 9.80563238257145 -6.347834878245285 8.172338127401398 -6.347834878245285 C 6.539043872231348 -6.347834878245285 5.214934218464393 -5.014278812777484 5.214934218464393 -3.3693135643115104 C 5.214934218464393 -1.7243483158455355 6.539011631918376 -0.3907922503777348 8.172338127401398 -0.3907922503777348 Z" fill="#1c3423" transform="matrix(1,0,0,1,0,0)" fill-rule="evenodd"></path></g><path d=" M 8.115258524373766 -1.9770156486084192 L 8.115258524373766 -4.9477302010439335 L 9.349601935308211 -4.9477302010439335 L 9.349601935308211 -5.201046945825255 L 6.461791044801131 -5.201046945825255 L 6.461791044801131 -4.9477302010439335 L 7.696134455735577 -4.9477302010439335 L 7.696134455735577 -1.9770156486084192 L 8.115258524373766 -1.9770156486084192" fill="#1c3423" transform="matrix(1,0,0,1,0,0)" fill-rule="nonzero"></path></g><g><path d=" M 2.02483125 0.29887649999999955 Q 2.0601945 0.3330989999999996 2.0601945 0.37872899999999965 Q 2.0601945 0.45401849999999966 2.01798675 0.4882409999999997 Q 1.9757790000000002 0.5224634999999995 1.884519 0.5156189999999996 Q 1.679184 0.4996484999999995 1.56396825 0.4939447499999996 Q 1.4487525 0.4882409999999997 1.2616695 0.48595949999999966 Q 1.177254 0.9057554999999997 1.1065275 1.3301144999999996 Q 1.081431 1.4852564999999998 1.0540530000000001 1.6894507499999998 Q 1.026675 1.8936449999999998 1.017549 2.0191274999999997 Q 1.012986 2.085291 0.962793 2.12065425 Q 0.9126000000000001 2.1560174999999995 0.8418735 2.1560174999999995 Q 0.766584 2.1560174999999995 0.7255170000000001 2.1195134999999996 Q 0.68445 2.0830094999999997 0.68445 2.0236905 Q 0.68445 1.9689344999999996 0.70156125 1.8423112499999996 Q 0.7186725 1.7156879999999997 0.7414875000000001 1.5765164999999997 Q 0.766584 1.4373449999999997 0.780273 1.3346774999999997 Q 0.8053695000000001 1.1612834999999997 0.8373105000000001 0.9901709999999997 Q 0.8692515000000001 0.8190584999999997 0.9011925000000001 0.6661979999999996 Q 0.9080370000000001 0.6319754999999996 0.9171630000000001 0.5874862499999995 Q 0.926289 0.5429969999999995 0.9376965 0.4882409999999997 Q 0.7141095000000001 0.4950854999999996 0.5863455000000001 0.5247449999999996 Q 0.45858150000000003 0.5544044999999995 0.40496625 0.6080197499999995 Q 0.351351 0.6616349999999995 0.351351 0.7460504999999997 Q 0.351351 0.8236214999999996 0.39698100000000003 0.8943479999999997 Q 0.406107 0.9103184999999996 0.406107 0.9285704999999995 Q 0.406107 0.9719189999999995 0.35477325000000004 1.0095637499999996 Q 0.30343950000000003 1.0472084999999995 0.2486835 1.0472084999999995 Q 0.209898 1.0472084999999995 0.1848015 1.0243934999999997 Q 0.1391715 0.9856079999999996 0.109512 0.9137407499999997 Q 0.0798525 0.8418734999999997 0.0798525 0.7506134999999996 Q 0.0798525 0.5566859999999996 0.20647575 0.4391887499999996 Q 0.33309900000000003 0.3216914999999996 0.5920492500000001 0.26693549999999955 Q 0.8509995 0.21217949999999952 1.2571065000000001 0.21217949999999952 Q 1.5080715 0.21217949999999952 1.65750975 0.2213054999999995 Q 1.806948 0.23043149999999968 1.9187415 0.25096499999999966 Q 1.989468 0.2646539999999995 2.02483125 0.29887649999999955 M 3.0424748966015622 1.6632134999999997 Q 3.0595861466015624 1.6905914999999996 3.0595861466015624 1.7385029999999997 Q 3.0595861466015624 1.8297629999999998 3.016237646601563 1.8799559999999997 Q 2.9112886466015624 2.0008755 2.8006358966015625 2.0784464999999996 Q 2.6899831466015627 2.1560174999999995 2.5485301466015624 2.1560174999999995 Q 2.432173646601562 2.1560174999999995 2.3728546466015623 2.0887132499999996 Q 2.3135356466015624 2.021409 2.3135356466015624 1.8936449999999998 Q 2.3135356466015624 1.8297629999999998 2.3454766466015626 1.6654949999999997 Q 2.3751361466015624 1.5217604999999996 2.3751361466015624 1.4670044999999996 Q 2.3751361466015624 1.4305004999999995 2.3500396466015623 1.4305004999999995 Q 2.3203801466015626 1.4305004999999995 2.2656241466015627 1.5069307499999995 Q 2.2108681466015625 1.5833609999999996 2.1561121466015623 1.7088434999999997 Q 2.1013561466015624 1.8343259999999997 2.0671336466015626 1.9734974999999997 Q 2.0237851466015626 2.1560174999999995 1.8526726466015624 2.1560174999999995 Q 1.7842276466015625 2.1560174999999995 1.7625533966015625 2.1069652499999996 Q 1.7408791466015625 2.0579129999999997 1.7408791466015625 1.9301489999999997 Q 1.7408791466015625 1.8571409999999997 1.7431606466015626 1.8137924999999997 L 1.7454421466015624 1.6312724999999997 Q 1.7454421466015624 1.2799214999999995 1.8173093966015625 0.8989109999999996 Q 1.8891766466015625 0.5179004999999997 2.0294888966015625 0.2589502499999996 Q 2.1698011466015625 -4.440892098500626e-16 2.3660101466015626 -4.440892098500626e-16 Q 2.4709591466015626 -4.440892098500626e-16 2.5359818966015624 0.09011924999999943 Q 2.6010046466015626 0.18023849999999952 2.6010046466015626 0.3239729999999996 Q 2.6010046466015626 0.5544044999999995 2.4663961466015625 0.8019472499999996 Q 2.3317876466015623 1.0494899999999996 2.0283481466015623 1.3803074999999998 Q 2.0215036466015626 1.4989454999999996 2.0215036466015626 1.6244279999999995 Q 2.0967931466015624 1.4305004999999995 2.1891938966015623 1.3084402499999996 Q 2.2815946466015626 1.1863799999999998 2.3717138966015625 1.1339054999999996 Q 2.4618331466015624 1.0814309999999996 2.5371226466015626 1.0814309999999996 Q 2.6854201466015626 1.0814309999999996 2.6854201466015626 1.2297284999999998 Q 2.6854201466015626 1.3187069999999996 2.6352271466015624 1.5514199999999998 Q 2.5918786466015624 1.7499104999999997 2.5918786466015624 1.8137924999999997 Q 2.5918786466015624 1.9050524999999996 2.6580421466015625 1.9050524999999996 Q 2.7036721466015625 1.9050524999999996 2.7664133966015623 1.8491557499999995 Q 2.8291546466015625 1.7932589999999997 2.9341036466015624 1.6677764999999996 Q 2.9614816466015625 1.6358354999999998 2.995704146601563 1.6358354999999998 Q 3.0253636466015625 1.6358354999999998 3.0424748966015622 1.6632134999999997 M 2.2268386466015624 0.3433657499999996 Q 2.1766456466015622 0.4608629999999996 2.1298748966015624 0.6604942499999995 Q 2.0831041466015625 0.8601254999999997 2.0534446466015623 1.0951199999999996 Q 2.1948976466015626 0.9285704999999995 2.2872983966015625 0.7323614999999997 Q 2.3796991466015625 0.5361524999999996 2.3796991466015625 0.3764474999999996 Q 2.3796991466015625 0.30343949999999964 2.3637286466015626 0.2646539999999995 Q 2.3477581466015627 0.22586849999999958 2.3180986466015625 0.22586849999999958 Q 2.2770316466015625 0.22586849999999958 2.2268386466015624 0.3433657499999996 M 3.768069832998047 1.7316584999999995 Q 3.7851810829980472 1.7590364999999997 3.7851810829980472 1.8069479999999998 Q 3.7851810829980472 1.8890819999999997 3.746395582998047 1.9484009999999996 Q 3.6825135829980473 2.0465055 3.578705332998047 2.1012614999999997 Q 3.474897082998047 2.1560174999999995 3.331162582998047 2.1560174999999995 Q 3.112138582998047 2.1560174999999995 2.991219082998047 2.0248312499999996 Q 2.8702995829980473 1.8936449999999998 2.8702995829980473 1.6700579999999996 Q 2.8702995829980473 1.5126344999999997 2.936463082998047 1.3768852499999995 Q 3.002626582998047 1.2411359999999996 3.120123832998047 1.1612834999999997 Q 3.237621082998047 1.0814309999999996 3.3859185829980474 1.0814309999999996 Q 3.518245582998047 1.0814309999999996 3.598098082998047 1.1601427499999997 Q 3.6779505829980472 1.2388544999999995 3.6779505829980472 1.3734629999999997 Q 3.6779505829980472 1.5308864999999998 3.565016332998047 1.6438207499999997 Q 3.452082082998047 1.7567549999999996 3.180583582998047 1.8229184999999997 Q 3.235339582998047 1.9278674999999996 3.3653850829980474 1.9278674999999996 Q 3.458926582998047 1.9278674999999996 3.5193863329980473 1.8845189999999996 Q 3.5798460829980474 1.8411704999999996 3.6596985829980473 1.7385029999999997 Q 3.6870765829980474 1.7042804999999996 3.7212990829980472 1.7042804999999996 Q 3.750958582998047 1.7042804999999996 3.768069832998047 1.7316584999999995 M 3.204539332998047 1.4031224999999996 Q 3.1463610829980473 1.5012269999999996 3.1463610829980473 1.6403984999999996 L 3.1463610829980473 1.6449614999999995 Q 3.280969582998047 1.6130204999999997 3.3585405829980473 1.5491384999999998 Q 3.436111582998047 1.4852564999999998 3.436111582998047 1.4008409999999998 Q 3.436111582998047 1.3574924999999998 3.4121558329980473 1.3312552499999997 Q 3.388200082998047 1.3050179999999996 3.347133082998047 1.3050179999999996 Q 3.262717582998047 1.3050179999999996 3.204539332998047 1.4031224999999996 M 6.4786410217089845 1.6689172499999998 Q 6.495752271708985 1.6974359999999997 6.495752271708985 1.7407844999999997 Q 6.495752271708985 1.7932589999999997 6.479781771708985 1.8229184999999997 Q 6.463811271708985 1.8525779999999996 6.429588771708985 1.8753929999999996 Q 6.294980271708985 1.9643714999999997 6.0006667717089845 2.1674249999999997 Q 5.911688271708985 2.6396954999999998 5.770235271708985 2.9111939999999996 Q 5.628782271708984 3.1826925 5.412039771708985 3.1826925 Q 5.295683271708985 3.1826925 5.222675271708985 3.1108252499999995 Q 5.149667271708984 3.0389579999999996 5.149667271708984 2.9226015 Q 5.149667271708984 2.815371 5.197578771708985 2.705859 Q 5.245490271708984 2.5963469999999997 5.376676521708984 2.4526125 Q 5.507862771708984 2.3088779999999995 5.747420271708984 2.1240764999999997 L 5.754264771708985 2.0807279999999997 Q 5.574026271708984 2.1560174999999995 5.400632271708984 2.1560174999999995 Q 5.145104271708984 2.1560174999999995 4.951176771708985 2.05677225 Q 4.757249271708985 1.9575269999999998 4.650018771708985 1.7750069999999996 Q 4.542788271708985 1.5924869999999998 4.542788271708985 1.3506479999999996 Q 4.542788271708985 1.0129859999999997 4.670552271708985 0.7540357499999997 Q 4.798316271708985 0.4950854999999996 5.0230440217089845 0.35249174999999955 Q 5.247771771708985 0.2098979999999997 5.5261147717089845 0.2098979999999997 Q 5.793050271708985 0.2098979999999997 5.926518021708985 0.3342397499999996 Q 6.059985771708985 0.45858149999999953 6.059985771708985 0.6639164999999996 Q 6.059985771708985 0.7985249999999997 6.010933521708985 0.8795182499999996 Q 5.961881271708984 0.9605114999999995 5.870621271708984 0.9605114999999995 Q 5.809020771708985 0.9605114999999995 5.771376021708985 0.9308519999999996 Q 5.733731271708985 0.9011924999999996 5.733731271708985 0.8487179999999996 Q 5.733731271708985 0.8259029999999996 5.742857271708985 0.7711469999999996 Q 5.756546271708984 0.7072649999999996 5.756546271708984 0.6707609999999997 Q 5.756546271708984 0.5749379999999995 5.698368021708985 0.5224634999999995 Q 5.640189771708984 0.46998899999999955 5.503299771708985 0.46998899999999955 Q 5.3367502717089845 0.46998899999999955 5.194156521708985 0.5658119999999995 Q 5.051562771708984 0.6616349999999995 4.964865771708984 0.8521402499999997 Q 4.878168771708984 1.0426454999999997 4.878168771708984 1.3095809999999997 Q 4.878168771708984 1.5833609999999996 5.0276070217089845 1.7327992499999998 Q 5.177045271708985 1.8822374999999996 5.459951271708984 1.8822374999999996 Q 5.617374771708985 1.8822374999999996 5.788487271708984 1.8115109999999996 L 5.820428271708985 1.5331679999999996 L 5.587715271708984 1.5331679999999996 Q 5.523833271708985 1.5331679999999996 5.489610771708985 1.5023677499999997 Q 5.455388271708984 1.4715674999999997 5.455388271708984 1.4008409999999998 Q 5.455388271708984 1.3369589999999998 5.489610771708985 1.3004549999999997 Q 5.523833271708985 1.2639509999999996 5.580870771708985 1.2639509999999996 L 6.007511271708985 1.2639509999999996 Q 6.057704271708984 1.2639509999999996 6.090786021708984 1.2970327499999996 Q 6.123867771708984 1.3301144999999996 6.117023271708985 1.3917149999999996 Q 6.110178771708984 1.4647229999999998 6.071393271708985 1.7225324999999998 L 6.046296771708985 1.8959264999999996 Q 6.228816771708985 1.7590364999999997 6.379395771708984 1.6586504999999996 Q 6.409055271708985 1.6403984999999996 6.431870271708984 1.6403984999999996 Q 6.461529771708985 1.6403984999999996 6.4786410217089845 1.6689172499999998 M 5.567181771708984 2.8267784999999996 Q 5.637908271708985 2.69217 5.6995087717089845 2.3932934999999995 Q 5.5261147717089845 2.5415909999999995 5.449684521708985 2.6613697499999995 Q 5.373254271708984 2.7811484999999996 5.373254271708984 2.8724084999999997 Q 5.373254271708984 2.9613869999999998 5.437136271708985 2.9613869999999998 Q 5.496455271708984 2.9613869999999998 5.567181771708984 2.8267784999999996 M 7.297686108984376 1.6632134999999997 Q 7.314797358984375 1.6905914999999996 7.314797358984375 1.7385029999999997 Q 7.314797358984375 1.8297629999999998 7.2714488589843755 1.8799559999999997 Q 7.173344358984376 2.0008755 7.058128608984376 2.0784464999999996 Q 6.942912858984375 2.1560174999999995 6.7968968589843755 2.1560174999999995 Q 6.596124858984376 2.1560174999999995 6.499161108984375 1.9734974999999997 Q 6.402197358984376 1.7909774999999997 6.402197358984376 1.5012269999999996 Q 6.402197358984376 1.2228839999999996 6.474064608984375 0.8669699999999996 Q 6.545931858984376 0.5110559999999995 6.686244108984376 0.25552799999999953 Q 6.826556358984376 -4.440892098500626e-16 7.020483858984376 -4.440892098500626e-16 Q 7.129995858984375 -4.440892098500626e-16 7.1927371089843755 0.10152674999999967 Q 7.255478358984376 0.20305349999999955 7.255478358984376 0.3924179999999997 Q 7.255478358984376 0.6639164999999996 7.104899358984375 1.0221119999999997 Q 6.954320358984376 1.3803074999999998 6.696510858984375 1.7316584999999995 Q 6.712481358984375 1.8251999999999997 6.748985358984376 1.8651262499999997 Q 6.785489358984376 1.9050524999999996 6.844808358984375 1.9050524999999996 Q 6.938349858984376 1.9050524999999996 7.009076358984375 1.8514372499999996 Q 7.079802858984375 1.7978219999999996 7.189314858984376 1.6677764999999996 Q 7.216692858984375 1.6358354999999998 7.250915358984376 1.6358354999999998 Q 7.280574858984375 1.6358354999999998 7.297686108984376 1.6632134999999997 M 6.851652858984376 0.4152329999999995 Q 6.785489358984376 0.6045974999999997 6.7352963589843755 0.8852219999999997 Q 6.685103358984375 1.1658464999999998 6.680540358984375 1.4236559999999998 Q 6.8425268589843755 1.1567204999999996 6.938349858984376 0.8886442499999996 Q 7.034172858984375 0.6205679999999996 7.034172858984375 0.39926249999999963 Q 7.034172858984375 0.22586849999999958 6.9702908589843755 0.22586849999999958 Q 6.917816358984375 0.22586849999999958 6.851652858984376 0.4152329999999995 M 7.191594086396485 2.0533499999999996 Q 7.107178586396485 1.9506824999999997 7.107178586396485 1.7841329999999997 Q 7.107178586396485 1.6016129999999995 7.191594086396485 1.4384857499999997 Q 7.276009586396485 1.2753584999999996 7.416321836396485 1.1761132499999998 Q 7.556634086396485 1.0768679999999997 7.7140575863964855 1.0768679999999997 Q 7.764250586396485 1.0768679999999997 7.781361836396485 1.0962607499999997 Q 7.798473086396485 1.1156534999999996 7.809880586396485 1.1658464999999998 Q 7.857792086396485 1.1567204999999996 7.910266586396485 1.1567204999999996 Q 8.022060086396484 1.1567204999999996 8.022060086396484 1.2365729999999995 Q 8.022060086396484 1.2844844999999996 7.987837586396485 1.4647229999999998 Q 7.935363086396485 1.7270954999999997 7.935363086396485 1.8297629999999998 Q 7.935363086396485 1.8639854999999996 7.952474336396485 1.8845189999999996 Q 7.9695855863964855 1.9050524999999996 7.996963586396485 1.9050524999999996 Q 8.040312086396485 1.9050524999999996 8.101912586396486 1.8491557499999995 Q 8.163513086396485 1.7932589999999997 8.268462086396486 1.6677764999999996 Q 8.295840086396485 1.6358354999999998 8.330062586396485 1.6358354999999998 Q 8.359722086396484 1.6358354999999998 8.376833336396485 1.6632134999999997 Q 8.393944586396485 1.6905914999999996 8.393944586396485 1.7385029999999997 Q 8.393944586396485 1.8297629999999998 8.350596086396486 1.8799559999999997 Q 8.257054586396485 1.9963124999999997 8.152105586396486 2.0761649999999996 Q 8.047156586396484 2.1560174999999995 7.949052086396485 2.1560174999999995 Q 7.873762586396485 2.1560174999999995 7.811021336396485 2.1046837499999995 Q 7.748280086396485 2.0533499999999996 7.716339086396485 1.9643714999999997 Q 7.597701086396485 2.1560174999999995 7.417462586396485 2.1560174999999995 Q 7.276009586396485 2.1560174999999995 7.191594086396485 2.0533499999999996 M 7.595419586396485 1.8662669999999997 Q 7.641049586396485 1.8069479999999998 7.661583086396485 1.7088434999999997 L 7.745998586396485 1.2890474999999997 Q 7.650175586396485 1.2913289999999997 7.569182336396485 1.3609147499999996 Q 7.488189086396485 1.4305004999999995 7.440277586396485 1.5445754999999997 Q 7.3923660863964855 1.6586504999999996 7.3923660863964855 1.7864144999999998 Q 7.3923660863964855 1.8571409999999997 7.420884836396485 1.8913634999999998 Q 7.449403586396485 1.9255859999999996 7.4995965863964855 1.9255859999999996 Q 7.549789586396485 1.9255859999999996 7.595419586396485 1.8662669999999997 M 8.278707625576171 2.0647575 Q 8.243344375576172 1.9734974999999997 8.243344375576172 1.7727254999999997 Q 8.243344375576172 1.4761304999999996 8.327759875576172 1.2091949999999998 Q 8.348293375576171 1.1430314999999995 8.395064125576171 1.1122312499999996 Q 8.441834875576172 1.0814309999999996 8.526250375576172 1.0814309999999996 Q 8.571880375576171 1.0814309999999996 8.590132375576172 1.0928384999999996 Q 8.608384375576172 1.1042459999999996 8.608384375576172 1.1361869999999996 Q 8.608384375576172 1.1726909999999995 8.574161875576172 1.3004549999999997 Q 8.551346875576172 1.3917149999999996 8.537657875576173 1.4590192499999997 Q 8.523968875576172 1.5263234999999997 8.514842875576171 1.6267094999999996 Q 8.576443375576172 1.4487524999999997 8.661999625576172 1.3255514999999995 Q 8.747555875576172 1.2023504999999997 8.837675125576173 1.1418907499999997 Q 8.927794375576172 1.0814309999999996 9.007646875576171 1.0814309999999996 Q 9.087499375576172 1.0814309999999996 9.120581125576171 1.1179349999999997 Q 9.153662875576172 1.1544389999999995 9.153662875576172 1.2297284999999998 Q 9.153662875576172 1.3027364999999995 9.110314375576172 1.4943824999999995 Q 9.092062375576171 1.5765164999999997 9.085217875576172 1.6175834999999996 Q 9.160507375576172 1.4259374999999996 9.252908125576171 1.3050179999999996 Q 9.345308875576173 1.1840984999999997 9.434287375576172 1.1327647499999995 Q 9.523265875576172 1.0814309999999996 9.598555375576172 1.0814309999999996 Q 9.671563375576172 1.0814309999999996 9.709208125576172 1.1190757499999997 Q 9.746852875576172 1.1567204999999996 9.746852875576172 1.2297284999999998 Q 9.746852875576172 1.2890474999999997 9.721756375576172 1.4533154999999995 Q 9.698941375576172 1.5924869999999998 9.685252375576171 1.7168287499999997 Q 9.671563375576172 1.8411704999999996 9.671563375576172 1.9940309999999997 Q 9.671563375576172 2.0807279999999997 9.636200125576172 2.11837275 Q 9.600836875576173 2.1560174999999995 9.520984375576171 2.1560174999999995 Q 9.445694875576171 2.1560174999999995 9.411472375576171 2.1172319999999996 Q 9.377249875576172 2.0784464999999996 9.377249875576172 2.0008755 Q 9.377249875576172 1.9096154999999997 9.409190875576172 1.6997174999999998 Q 9.436568875576171 1.5171974999999995 9.436568875576171 1.4670044999999996 Q 9.436568875576171 1.4305004999999995 9.411472375576171 1.4305004999999995 Q 9.381812875576172 1.4305004999999995 9.327056875576172 1.5069307499999995 Q 9.272300875576171 1.5833609999999996 9.217544875576172 1.7088434999999997 Q 9.162788875576172 1.8343259999999997 9.128566375576172 1.9734974999999997 Q 9.103469875576172 2.0830094999999997 9.070388125576171 2.1195134999999996 Q 9.037306375576172 2.1560174999999995 8.964298375576172 2.1560174999999995 Q 8.889008875576172 2.1560174999999995 8.851364125576172 2.0841502499999995 Q 8.813719375576172 2.0122829999999996 8.813719375576172 1.9096154999999997 Q 8.813719375576172 1.8229184999999997 8.836534375576171 1.6586504999999996 Q 8.854786375576172 1.5126344999999997 8.854786375576172 1.4670044999999996 Q 8.854786375576172 1.4305004999999995 8.829689875576172 1.4305004999999995 Q 8.795467375576171 1.4305004999999995 8.742992875576173 1.5126344999999997 Q 8.690518375576172 1.5947684999999998 8.641466125576171 1.7225324999999998 Q 8.592413875576172 1.8502964999999998 8.562754375576171 1.9734974999999997 Q 8.537657875576173 2.0807279999999997 8.504576125576172 2.11837275 Q 8.471494375576171 2.1560174999999995 8.400767875576172 2.1560174999999995 Q 8.314070875576173 2.1560174999999995 8.278707625576171 2.0647575 M 10.723447301835936 2.0476462499999997 Q 10.540927301835938 1.9324304999999997 10.540927301835938 1.6951544999999997 Q 10.540927301835938 1.5696719999999997 10.584275801835936 1.5035084999999997 Q 10.627624301835937 1.4373449999999997 10.712039801835937 1.4373449999999997 Q 10.773640301835936 1.4373449999999997 10.812425801835937 1.4692859999999996 Q 10.851211301835937 1.5012269999999996 10.851211301835937 1.5514199999999998 Q 10.851211301835937 1.5970499999999996 10.844366801835937 1.6312724999999997 Q 10.844366801835937 1.6403984999999996 10.840944551835937 1.6632134999999997 Q 10.837522301835937 1.6860284999999997 10.837522301835937 1.7111249999999996 Q 10.837522301835937 1.8137924999999997 10.941330551835938 1.8639854999999996 Q 11.045138801835936 1.9141784999999998 11.232221801835937 1.9141784999999998 Q 11.426149301835936 1.9141784999999998 11.535661301835937 1.8445927499999997 Q 11.645173301835937 1.7750069999999996 11.645173301835937 1.6495244999999996 Q 11.645173301835937 1.5719534999999998 11.594980301835937 1.5160567499999997 Q 11.544787301835937 1.4601599999999997 11.469497801835937 1.4225152499999996 Q 11.394208301835937 1.3848704999999997 11.257318301835937 1.3301144999999996 Q 11.081642801835937 1.2616694999999996 10.970990051835937 1.2000689999999996 Q 10.860337301835937 1.1384684999999997 10.781625551835937 1.0323787499999997 Q 10.702913801835937 0.9262889999999997 10.702913801835937 0.7688654999999995 Q 10.702913801835937 0.6045974999999997 10.790751551835937 0.4768334999999997 Q 10.878589301835937 0.3490694999999997 11.043998051835937 0.27834299999999956 Q 11.209406801835938 0.20761649999999965 11.432993801835936 0.20761649999999965 Q 11.599543301835936 0.20761649999999965 11.738714801835936 0.25666874999999956 Q 11.877886301835936 0.3057209999999997 11.961161051835937 0.40610699999999955 Q 12.044435801835936 0.5064929999999996 12.044435801835936 0.6525089999999996 Q 12.044435801835936 0.7962434999999997 12.001087301835938 0.8692514999999996 Q 11.957738801835937 0.9422594999999996 11.873323301835937 0.9422594999999996 Q 11.814004301835936 0.9422594999999996 11.774078051835938 0.9057554999999997 Q 11.734151801835937 0.8692514999999996 11.734151801835937 0.8190584999999997 Q 11.734151801835937 0.7757099999999997 11.740996301835937 0.7392059999999996 Q 11.747840801835936 0.6707609999999997 11.747840801835936 0.6525089999999996 Q 11.747840801835936 0.5566859999999996 11.654299301835938 0.5064929999999996 Q 11.560757801835937 0.4562999999999997 11.421586301835937 0.4562999999999997 Q 11.225377301835938 0.4562999999999997 11.121569051835937 0.5281672499999996 Q 11.017760801835937 0.6000344999999996 11.017760801835937 0.7300799999999996 Q 11.017760801835937 0.8167769999999996 11.071376051835937 0.8783774999999996 Q 11.124991301835937 0.9399779999999995 11.204843801835937 0.9810449999999997 Q 11.284696301835936 1.0221119999999997 11.428430801835937 1.0791494999999995 Q 11.601824801835937 1.1498759999999997 11.706773801835936 1.2069134999999998 Q 11.811722801835938 1.2639509999999996 11.885871551835937 1.3620554999999996 Q 11.960020301835936 1.4601599999999997 11.960020301835936 1.6038944999999996 Q 11.960020301835936 1.8731114999999996 11.755826051835937 2.0179867499999995 Q 11.551631801835937 2.1628619999999996 11.209406801835938 2.1628619999999996 Q 10.905967301835936 2.1628619999999996 10.723447301835936 2.0476462499999997 M 13.225119805371092 1.6632134999999997 Q 13.242231055371093 1.6905914999999996 13.242231055371093 1.7385029999999997 Q 13.242231055371093 1.8297629999999998 13.198882555371092 1.8799559999999997 Q 13.100778055371093 2.0008755 12.984421555371092 2.0784464999999996 Q 12.868065055371092 2.1560174999999995 12.717486055371092 2.1560174999999995 Q 12.252060055371093 2.1560174999999995 12.252060055371093 1.5012269999999996 Q 12.252060055371093 1.4008409999999998 12.258904555371092 1.2981734999999996 L 12.169926055371093 1.2981734999999996 Q 12.101481055371092 1.2981734999999996 12.077525305371092 1.2730769999999998 Q 12.053569555371093 1.2479804999999997 12.053569555371093 1.1932244999999997 Q 12.053569555371093 1.0654604999999997 12.156237055371092 1.0654604999999997 L 12.286282555371093 1.0654604999999997 Q 12.325068055371093 0.8144954999999996 12.404920555371092 0.6068789999999995 Q 12.484773055371091 0.39926249999999963 12.597707305371092 0.2760614999999995 Q 12.710641555371092 0.15286049999999962 12.840687055371092 0.15286049999999962 Q 12.936510055371093 0.15286049999999962 12.991266055371092 0.2372759999999996 Q 13.046022055371091 0.3216914999999996 13.046022055371091 0.44945549999999956 Q 13.046022055371091 0.8030879999999996 12.749427055371092 1.0654604999999997 L 13.004955055371092 1.0654604999999997 Q 13.041459055371092 1.0654604999999997 13.057429555371092 1.0814309999999996 Q 13.073400055371092 1.0974014999999997 13.073400055371092 1.1407499999999997 Q 13.073400055371092 1.2981734999999996 12.815590555371092 1.2981734999999996 L 12.537247555371092 1.2981734999999996 Q 12.532684555371093 1.4122484999999996 12.532684555371093 1.4761304999999996 Q 12.532684555371093 1.7134064999999996 12.588581305371092 1.8092294999999996 Q 12.644478055371092 1.9050524999999996 12.765397555371091 1.9050524999999996 Q 12.863502055371093 1.9050524999999996 12.938791555371091 1.8457334999999997 Q 13.014081055371092 1.7864144999999998 13.116748555371093 1.6677764999999996 Q 13.144126555371091 1.6358354999999998 13.178349055371092 1.6358354999999998 Q 13.208008555371093 1.6358354999999998 13.225119805371092 1.6632134999999997 M 12.702656305371093 0.4574407499999995 Q 12.660448555371092 0.5429969999999995 12.622803805371092 0.6947167499999995 Q 12.585159055371092 0.8464364999999996 12.560062555371092 1.0312379999999997 Q 12.694671055371092 0.9148814999999997 12.761975305371092 0.7700062499999996 Q 12.829279555371093 0.6251309999999997 12.829279555371093 0.5064929999999996 Q 12.829279555371093 0.3718844999999995 12.779086555371093 0.3718844999999995 Q 12.744864055371092 0.3718844999999995 12.702656305371093 0.4574407499999995 M 14.302045689521483 1.6689172499999998 Q 14.319156939521482 1.6974359999999997 14.319156939521482 1.7407844999999997 Q 14.319156939521482 1.7932589999999997 14.303186439521482 1.8229184999999997 Q 14.287215939521483 1.8525779999999996 14.252993439521482 1.8753929999999996 L 13.814945439521484 2.1697064999999998 Q 13.728248439521483 2.641977 13.587936189521482 2.91233475 Q 13.447623939521483 3.1826925 13.230881439521482 3.1826925 Q 13.114524939521482 3.1826925 13.041516939521482 3.1108252499999995 Q 12.968508939521483 3.0389579999999996 12.968508939521483 2.9226015 Q 12.968508939521483 2.815371 13.017561189521484 2.7035774999999997 Q 13.066613439521483 2.5917839999999996 13.200081189521484 2.4469087499999995 Q 13.333548939521483 2.3020335 13.577669439521483 2.1149504999999995 L 13.584513939521482 2.0624759999999998 Q 13.600484439521484 1.9780604999999998 13.621017939521483 1.8206369999999996 Q 13.575387939521484 1.9849049999999997 13.493253939521484 2.0704612499999997 Q 13.411119939521482 2.1560174999999995 13.319859939521482 2.1560174999999995 Q 13.217192439521483 2.1560174999999995 13.152169689521482 2.0613352499999995 Q 13.087146939521483 1.9666529999999998 13.087146939521483 1.8251999999999997 Q 13.087146939521483 1.6540874999999997 13.109961939521483 1.5114937499999996 Q 13.132776939521483 1.3688999999999996 13.185251439521483 1.2091949999999998 Q 13.208066439521483 1.1407499999999997 13.249133439521483 1.1110904999999995 Q 13.290200439521483 1.0814309999999996 13.379178939521482 1.0814309999999996 Q 13.429371939521483 1.0814309999999996 13.448764689521482 1.0974014999999997 Q 13.468157439521484 1.1133719999999996 13.468157439521484 1.1453129999999996 Q 13.468157439521484 1.1635649999999997 13.443060939521484 1.2685139999999997 Q 13.420245939521482 1.3529294999999997 13.406556939521483 1.4213744999999998 Q 13.388304939521483 1.5149159999999997 13.374615939521483 1.6004722499999997 Q 13.360926939521484 1.6860284999999997 13.360926939521484 1.7407844999999997 Q 13.360926939521484 1.8274814999999998 13.408838439521483 1.8274814999999998 Q 13.443060939521484 1.8274814999999998 13.494394689521483 1.7590364999999997 Q 13.545728439521483 1.6905914999999996 13.603906689521484 1.5514199999999998 Q 13.662084939521483 1.4122484999999996 13.716840939521482 1.2091949999999998 Q 13.735092939521483 1.1407499999999997 13.772737689521483 1.1110904999999995 Q 13.810382439521483 1.0814309999999996 13.885671939521483 1.0814309999999996 Q 13.938146439521484 1.0814309999999996 13.958679939521483 1.0951199999999996 Q 13.979213439521484 1.1088089999999997 13.979213439521484 1.1407499999999997 Q 13.979213439521484 1.1977874999999996 13.919894439521483 1.5331679999999996 L 13.860575439521483 1.9004894999999997 Q 14.036250939521484 1.7681624999999996 14.202800439521482 1.6586504999999996 Q 14.232459939521483 1.6403984999999996 14.255274939521483 1.6403984999999996 Q 14.284934439521482 1.6403984999999996 14.302045689521483 1.6689172499999998 M 13.383741939521483 2.8290599999999997 Q 13.454468439521483 2.6967329999999996 13.525194939521484 2.3887305 Q 13.349519439521483 2.537028 13.270807689521483 2.65908825 Q 13.192095939521483 2.7811484999999996 13.192095939521483 2.8724084999999997 Q 13.192095939521483 2.9111939999999996 13.206925689521483 2.9362904999999997 Q 13.221755439521482 2.9613869999999998 13.255977939521483 2.9613869999999998 Q 13.313015439521482 2.9613869999999998 13.383741939521483 2.8290599999999997 M 15.121158731630858 1.6632134999999997 Q 15.138269981630858 1.6905914999999996 15.138269981630858 1.7385029999999997 Q 15.138269981630858 1.8297629999999998 15.094921481630857 1.8799559999999997 Q 14.996816981630857 2.0008755 14.881601231630858 2.0784464999999996 Q 14.766385481630858 2.1560174999999995 14.620369481630858 2.1560174999999995 Q 14.419597481630857 2.1560174999999995 14.322633731630859 1.9734974999999997 Q 14.225669981630858 1.7909774999999997 14.225669981630858 1.5012269999999996 Q 14.225669981630858 1.2228839999999996 14.297537231630859 0.8669699999999996 Q 14.369404481630857 0.5110559999999995 14.509716731630858 0.25552799999999953 Q 14.650028981630857 -4.440892098500626e-16 14.843956481630858 -4.440892098500626e-16 Q 14.953468481630859 -4.440892098500626e-16 15.016209731630857 0.10152674999999967 Q 15.078950981630857 0.20305349999999955 15.078950981630857 0.3924179999999997 Q 15.078950981630857 0.6639164999999996 14.928371981630859 1.0221119999999997 Q 14.777792981630858 1.3803074999999998 14.519983481630858 1.7316584999999995 Q 14.535953981630858 1.8251999999999997 14.572457981630858 1.8651262499999997 Q 14.608961981630857 1.9050524999999996 14.668280981630858 1.9050524999999996 Q 14.761822481630858 1.9050524999999996 14.832548981630858 1.8514372499999996 Q 14.903275481630859 1.7978219999999996 15.012787481630857 1.6677764999999996 Q 15.040165481630858 1.6358354999999998 15.074387981630858 1.6358354999999998 Q 15.104047481630857 1.6358354999999998 15.121158731630858 1.6632134999999997 M 14.675125481630857 0.4152329999999995 Q 14.608961981630857 0.6045974999999997 14.558768981630857 0.8852219999999997 Q 14.508575981630859 1.1658464999999998 14.504012981630858 1.4236559999999998 Q 14.665999481630857 1.1567204999999996 14.761822481630858 0.8886442499999996 Q 14.857645481630858 0.6205679999999996 14.857645481630858 0.39926249999999963 Q 14.857645481630858 0.22586849999999958 14.793763481630858 0.22586849999999958 Q 14.741288981630857 0.22586849999999958 14.675125481630857 0.4152329999999995 M 15.846695739316406 1.7316584999999995 Q 15.863806989316405 1.7590364999999997 15.863806989316405 1.8069479999999998 Q 15.863806989316405 1.8890819999999997 15.825021489316406 1.9484009999999996 Q 15.761139489316404 2.0465055 15.657331239316406 2.1012614999999997 Q 15.553522989316406 2.1560174999999995 15.409788489316405 2.1560174999999995 Q 15.190764489316406 2.1560174999999995 15.069844989316405 2.0248312499999996 Q 14.948925489316405 1.8936449999999998 14.948925489316405 1.6700579999999996 Q 14.948925489316405 1.5126344999999997 15.015088989316405 1.3768852499999995 Q 15.081252489316405 1.2411359999999996 15.198749739316405 1.1612834999999997 Q 15.316246989316404 1.0814309999999996 15.464544489316404 1.0814309999999996 Q 15.596871489316404 1.0814309999999996 15.676723989316406 1.1601427499999997 Q 15.756576489316405 1.2388544999999995 15.756576489316405 1.3734629999999997 Q 15.756576489316405 1.5308864999999998 15.643642239316405 1.6438207499999997 Q 15.530707989316404 1.7567549999999996 15.259209489316405 1.8229184999999997 Q 15.313965489316406 1.9278674999999996 15.444010989316405 1.9278674999999996 Q 15.537552489316404 1.9278674999999996 15.598012239316406 1.8845189999999996 Q 15.658471989316405 1.8411704999999996 15.738324489316405 1.7385029999999997 Q 15.765702489316405 1.7042804999999996 15.799924989316406 1.7042804999999996 Q 15.829584489316405 1.7042804999999996 15.846695739316406 1.7316584999999995 M 15.283165239316405 1.4031224999999996 Q 15.224986989316404 1.5012269999999996 15.224986989316404 1.6403984999999996 L 15.224986989316404 1.6449614999999995 Q 15.359595489316405 1.6130204999999997 15.437166489316406 1.5491384999999998 Q 15.514737489316405 1.4852564999999998 15.514737489316405 1.4008409999999998 Q 15.514737489316405 1.3574924999999998 15.490781739316406 1.3312552499999997 Q 15.466825989316405 1.3050179999999996 15.425758989316405 1.3050179999999996 Q 15.341343489316404 1.3050179999999996 15.283165239316405 1.4031224999999996" fill="#102036" fill-rule="nonzero"></path></g><g></g></g><defs><clipPath id="SvgjsClipPath1002"><path d=" M 4.6816472015917565 -6.813062594433674 h 6.448062594433674 v 6.448062594433674 h -6.448062594433674 Z"></path></clipPath><clipPath id="SvgjsClipPath100059f7caa6-b7e9-4f35-9378-5eaa9e8e27fa"><path d=" M 4.6816472015917565 -6.7872703440559405 L 11.12970979602543 -6.7872703440559405 L 11.12970979602543 -0.3907922503777348 L 4.6816472015917565 -0.3907922503777348 Z"></path></clipPath></defs></svg>